# xmcd CD database file
#
# Track frame offsets:
#	150
#	12112
#	30747
#	48087
#	67897
#	84702
#	104469
#	126651
#	144966
#	163291
#	181153
#	196831
#	213771
#	234508
#	262439
#	277067
#	291133
#	304387
#	323696
#	346420
#
# Disc length: 4789 seconds
#
# Revision: 0
# Processed by: cddbd v1.5.1PL0 Copyright (c) Steve Scherf et al.
# Submitted via: CDex 1.50
#
DISCID=2d12b314
DTITLE=Clifford Brown - Brownie Speaks
DYEAR=1900
DGENRE=Jazz
TTITLE0=I Come From Jamaica
TTITLE1=Carvin' The Rock
TTITLE2=Brownie Speaks
TTITLE3=You Go To My Head
TTITLE4=Capri
TTITLE5=Turnpike
TTITLE6=Get Happy
TTITLE7=Wail Bait
TTITLE8=Hymn To The Orient
TTITLE9=Brownie Eyes
TTITLE10=Cherokee
TTITLE11=Easy Living
TTITLE12=Minor Mood
TTITLE13=Brown Skins
TTITLE14=Blue and Brown
TTITLE15=I Can Dream, Can't I
TTITLE16=The Song Is You
TTITLE17=Come Rain Or Come Shine
TTITLE18=It Might As Well Be Spring
TTITLE19=You're A Lucky Guy
EXTD=
EXTT0=
EXTT1=
EXTT2=
EXTT3=
EXTT4=
EXTT5=
EXTT6=
EXTT7=
EXTT8=
EXTT9=
EXTT10=
EXTT11=
EXTT12=
EXTT13=
EXTT14=
EXTT15=
EXTT16=
EXTT17=
EXTT18=
EXTT19=
PLAYORDER=
